<svg width="52" height="52" viewBox="0 0 52 52" fill="none" xmlns="http://www.w3.org/2000/svg">
<circle cx="26" cy="26" r="24" stroke="#FFEC00" stroke-width="4"/>
<path fill-rule="evenodd" clip-rule="evenodd" d="M30.4453 13.0784C29.2956 13 27.8695 13 26.0375 13H25.9625C24.1305 13 22.7044 13 21.5547 13.0784C20.3881 13.158 19.4331 13.3217 18.5558 13.6851C16.3506 14.5985 14.5985 16.3506 13.6851 18.5558C13.3217 19.4331 13.158 20.3881 13.0784 21.5547C13 22.7044 13 24.1305 13 25.9625V26.0375C13 27.8695 13 29.2956 13.0784 30.4453C13.158 31.6119 13.3217 32.5669 13.6851 33.4442C14.5985 35.6494 16.3506 37.4015 18.5558 38.3149C19.4331 38.6783 20.3881 38.842 21.5547 38.9216C22.7044 39 24.1304 39 25.9624 39H26.0376C27.8696 39 29.2956 39 30.4453 38.9216C31.6119 38.842 32.5669 38.6783 33.4442 38.3149C35.6494 37.4015 37.4015 35.6494 38.3149 33.4442C38.6783 32.5669 38.842 31.6119 38.9216 30.4453C39 29.2956 39 27.8696 39 26.0376V25.9624C39 24.1304 39 22.7044 38.9216 21.5547C38.842 20.3881 38.6783 19.4331 38.3149 18.5558C37.4015 16.3506 35.6494 14.5985 33.4442 13.6851C32.5669 13.3217 31.6119 13.158 30.4453 13.0784ZM20 26C20 22.6863 22.6863 20 26 20C29.3137 20 32 22.6863 32 26C32 29.3137 29.3137 32 26 32C22.6863 32 20 29.3137 20 26Z" fill="white"/>
<path d="M22 26C22 23.7909 23.7909 22 26 22C28.2091 22 30 23.7909 30 26C30 28.2091 28.2091 30 26 30C23.7909 30 22 28.2091 22 26Z" fill="white"/>
</svg>
