<svg width="134" height="42" viewBox="0 0 134 42" fill="none" xmlns="http://www.w3.org/2000/svg">
<path fill-rule="evenodd" clip-rule="evenodd" d="M4.62352 0H56.2922C58.8352 0 60.9157 2.09278 60.9157 4.65057V37.3215C60.9157 39.8792 58.835 41.9721 56.2922 41.9721H40.7903C40.2058 41.9803 39.6316 41.7469 39.2165 41.3119L33.165 35.2506C33.1146 35.2135 33.0853 35.1852 33.0647 35.1583C32.5885 34.7651 32.2848 34.1685 32.2848 33.5005C32.2848 32.3167 33.2391 31.3569 34.416 31.3569C34.5729 31.3569 34.726 31.3741 34.8731 31.4064L34.8936 31.4107L34.9002 31.412C35.2431 31.4899 35.5653 31.6531 35.8355 31.8918C36.5411 32.5162 37.4019 33.5032 38.0887 34.1822L41.6165 37.6698H55.1362C55.7719 37.6698 56.292 37.1467 56.292 36.5072V5.46399C56.292 4.8245 55.7719 4.30146 55.1362 4.30146H5.77928C5.14357 4.30146 4.62352 4.8245 4.62352 5.46399V36.5072C4.62352 37.1465 5.14357 37.6698 5.77928 37.6698H20.0547V13.4862C20.0547 11.3994 21.7367 9.70767 23.8113 9.70767C24.3767 9.70767 24.9125 9.8333 25.3933 10.0583C25.509 10.107 25.6198 10.1659 25.7241 10.2336L39.5274 18.4497C39.5886 18.4859 39.6475 18.5254 39.7046 18.5674C40.7636 19.2357 41.4676 20.4202 41.4676 21.7702C41.4676 22.4019 41.3133 22.9976 41.0409 23.5209C40.8087 23.967 40.5964 24.2083 40.3753 24.4243C40.0485 24.7433 39.6847 24.9611 39.0694 25.3197L31.3596 29.8158C30.9937 30.1105 30.5292 30.2868 30.024 30.2868C28.8431 30.2868 27.8856 29.3238 27.8856 28.136C27.8856 27.186 28.4979 26.3798 29.3472 26.0951L36.6879 21.7588L34.2473 20.3044L24.3003 14.3767V38.2618V39.0246V39.5321C24.4245 40.5952 23.3531 41.7322 22.7355 41.8987C22.1032 42.0692 22.3588 41.9731 22.1731 41.9723H22.1635L22.0969 41.9717H4.62352C2.08092 41.9717 0 39.879 0 37.3211V4.65057C0 2.09278 2.08055 0 4.62352 0Z" fill="#FFEC00"/>
<path fill-rule="evenodd" clip-rule="evenodd" d="M76.7882 10.5994C78.8875 10.5994 80.4172 10.9489 81.3773 11.6479C82.3375 12.347 82.8178 13.4558 82.8178 14.9749C82.8178 15.8218 82.5869 16.6048 82.1252 17.3241C81.6639 18.0432 81.0012 18.5842 80.138 18.9471L84.0683 24.714H79.9817C79.6838 24.015 79.3266 23.3698 78.9097 22.7783L77.302 20.3788C77.1531 20.1368 77.0192 19.9756 76.9 19.8949C76.7809 19.8143 76.6171 19.774 76.4087 19.774H75.7165V22.5565C75.7165 23.4571 75.761 24.1764 75.8503 24.714H72.2998V12.777C72.2998 11.7957 72.2479 11.0699 72.1436 10.5994H76.7882ZM75.7165 13.3014V17.2534H76.8108C77.6592 17.2534 78.3031 17.072 78.7423 16.7091C79.1814 16.3461 79.4011 15.8218 79.4011 15.1363C79.4011 13.9129 78.6269 13.3014 77.0786 13.3014H75.7165ZM88.311 13.1602C88.7128 11.9907 88.9438 11.1371 89.0032 10.5994H93.4918L98.4044 24.714H94.2733C94.1988 24.1226 94.0575 23.464 93.849 22.738L93.38 21.2862H89.2265L88.7577 22.7178C88.5492 23.4437 88.4078 24.1092 88.3332 24.714H84.2245L88.311 13.1602ZM92.6878 18.5842L92.0178 16.4873C91.7945 15.6942 91.5937 14.7935 91.4149 13.7852H91.348C91.1246 14.8068 90.8938 15.7075 90.6558 16.4873L89.9856 18.5842H92.6878ZM99.6995 12.7568C99.6995 11.8159 99.6476 11.0967 99.5432 10.5994H108.476V13.503C107.984 13.4223 107.203 13.3821 106.131 13.3821H103.138V16.467H108.074V19.2295C107.582 19.1488 106.801 19.1086 105.729 19.1086H103.138V22.6776C103.138 23.0136 103.153 23.3799 103.183 23.7765C103.213 24.173 103.25 24.4855 103.295 24.714H99.6995V12.7568ZM110.575 12.7568C110.575 11.789 110.523 11.0699 110.418 10.5994H119.753V13.503C119.127 13.4223 118.346 13.3821 117.408 13.3821H114.014V16.1445H119.351V18.9069C118.8 18.8127 118.018 18.7658 117.006 18.7658H114.014V20.278C114.014 20.8963 114.036 21.4475 114.081 21.9314H117.564C118.517 21.9314 119.306 21.8912 119.931 21.8105V24.714H110.575V12.7568ZM126.72 10.5994C128.819 10.5994 130.349 10.9489 131.309 11.6479C132.269 12.347 132.749 13.4558 132.749 14.9749C132.749 15.8218 132.518 16.6048 132.057 17.3241C131.595 18.0432 130.933 18.5842 130.069 18.9471L134 24.714H129.913C129.615 24.015 129.258 23.3698 128.841 22.7783L127.233 20.3788C127.085 20.1368 126.951 19.9756 126.832 19.8949C126.712 19.8143 126.549 19.774 126.34 19.774H125.648V22.5565C125.648 23.4571 125.693 24.1764 125.782 24.714H122.231V12.777C122.231 11.7957 122.179 11.0699 122.075 10.5994H126.72ZM125.648 13.3014V17.2534H126.742C127.591 17.2534 128.235 17.072 128.674 16.7091C129.113 16.3461 129.333 15.8218 129.333 15.1363C129.333 13.9129 128.558 13.3014 127.01 13.3014H125.648Z" fill="white"/>
<path fill-rule="evenodd" clip-rule="evenodd" d="M73.0553 31.897V29.4745H72.1973V28.9818H74.4962V29.4745H73.6422V31.897H73.0553ZM74.8762 28.9818H76.0351C76.2652 28.9818 76.4358 28.9913 76.5485 29.0103C76.6619 29.03 76.7624 29.0701 76.8514 29.1305C76.9404 29.1915 77.0147 29.2724 77.074 29.3734C77.1334 29.4745 77.1631 29.5886 77.1631 29.7141C77.1631 29.8498 77.1267 29.9753 77.0539 30.0886C76.981 30.2026 76.8817 30.2874 76.757 30.3444C76.9331 30.3966 77.0681 30.4849 77.1631 30.6098C77.2575 30.7346 77.3048 30.8812 77.3048 31.0501C77.3048 31.1832 77.2744 31.3121 77.2131 31.4376C77.1516 31.5632 77.0681 31.6636 76.9615 31.739C76.8556 31.8135 76.7247 31.8597 76.5688 31.8773C76.4716 31.8875 76.2362 31.8944 75.8631 31.897H74.8762V28.9818ZM75.4631 29.4664V30.1382H75.8462C76.0736 30.1382 76.2153 30.1345 76.2706 30.128C76.3705 30.1164 76.4494 30.0818 76.5068 30.0242C76.5641 29.9665 76.5924 29.8911 76.5924 29.7976C76.5924 29.7072 76.5674 29.6347 76.5181 29.5784C76.469 29.522 76.3954 29.4881 76.2983 29.4766C76.2403 29.4698 76.0735 29.4664 75.799 29.4664H75.4631ZM75.4631 30.6227V31.4043H76.0054C76.216 31.4043 76.3502 31.3981 76.4068 31.3867C76.4938 31.3704 76.5648 31.3317 76.6193 31.27C76.674 31.2076 76.7016 31.1255 76.7016 31.0217C76.7016 30.9334 76.6808 30.8594 76.6383 30.7984C76.5964 30.7372 76.535 30.6926 76.4553 30.6647C76.3759 30.6369 76.2025 30.6227 75.936 30.6227H75.4631ZM77.5774 30.4571C77.5774 30.1599 77.622 29.9101 77.7104 29.708C77.7758 29.5594 77.8661 29.4256 77.9803 29.3075C78.0942 29.1896 78.2189 29.1021 78.3545 29.0442C78.5354 28.9676 78.7439 28.929 78.98 28.929C79.4078 28.929 79.749 29.0627 80.0061 29.3293C80.2624 29.5967 80.3906 29.9679 80.3906 30.4436C80.3906 30.9151 80.2631 31.2843 80.0087 31.5502C79.7545 31.8169 79.4137 31.95 78.988 31.95C78.5569 31.95 78.2135 31.8176 77.9592 31.5524C77.705 31.2876 77.5774 30.9225 77.5774 30.4571ZM78.1805 30.4374C78.1805 30.7679 78.2569 31.0183 78.4085 31.1892C78.5604 31.3595 78.7533 31.4451 78.9868 31.4451C79.2208 31.4451 79.4124 31.3602 79.5627 31.1913C79.7125 31.0217 79.7875 30.7679 79.7875 30.4293C79.7875 30.0948 79.7146 29.8451 79.5682 29.6809C79.4224 29.516 79.229 29.4338 78.9868 29.4338C78.7453 29.4338 78.5502 29.5172 78.4024 29.6835C78.2548 29.8505 78.1805 30.1015 78.1805 30.4374ZM80.8474 31.897V28.9818H81.7858C82.1412 28.9818 82.3725 28.9961 82.4805 29.0253C82.6465 29.0693 82.7855 29.1645 82.8975 29.3111C83.0095 29.4576 83.0655 29.647 83.0655 29.879C83.0655 30.0581 83.0331 30.208 82.969 30.3302C82.9043 30.4523 82.8226 30.5479 82.7234 30.618C82.6242 30.6872 82.523 30.7332 82.4206 30.7557C82.2808 30.7835 82.0791 30.7977 81.8147 30.7977H81.4343V31.897H80.8474ZM81.4343 29.4745V30.3051H81.7534C81.9834 30.3051 82.1365 30.2894 82.214 30.259C82.2917 30.2284 82.3524 30.181 82.3963 30.1151C82.4402 30.05 82.4624 29.9746 82.4624 29.8877C82.4624 29.7813 82.4313 29.6937 82.3699 29.6244C82.3079 29.5552 82.2303 29.5118 82.1352 29.4942C82.0657 29.4814 81.9261 29.4745 81.7155 29.4745H81.4343ZM83.4987 28.9818H84.0856V29.6773C84.0856 29.9027 84.0937 30.0519 84.1104 30.1252C84.1267 30.1992 84.176 30.263 84.2576 30.3173C84.3385 30.3717 84.4586 30.3987 84.6165 30.3987C84.7413 30.3987 84.8526 30.3852 84.9504 30.3579C85.0476 30.3309 85.1318 30.2908 85.2028 30.2379V28.9818H85.7896V31.897H85.2028V30.7223C85.084 30.7754 84.9672 30.8153 84.8526 30.8425C84.738 30.8696 84.6253 30.8831 84.5147 30.8831C84.226 30.8831 83.9844 30.8148 83.7901 30.6777C83.5958 30.5406 83.4987 30.3031 83.4987 29.9651V28.9818ZM86.3915 31.897V28.9818H88.5367V29.4745H86.9784V30.1219H88.4274V30.6146H86.9784V31.4043H88.5935V31.897H86.3915ZM90.9453 30.8221L91.5118 30.9973C91.4248 31.3182 91.2797 31.5564 91.0774 31.7124C90.875 31.8678 90.6186 31.9458 90.3076 31.9458C89.9224 31.9458 89.606 31.8135 89.3578 31.549C89.1102 31.2843 88.9861 30.9225 88.9861 30.4632C88.9861 29.9781 89.1109 29.6008 89.3597 29.3319C89.6087 29.0634 89.9366 28.929 90.3427 28.929C90.6976 28.929 90.9856 29.0348 91.2068 29.2458C91.3391 29.3707 91.4377 29.5499 91.5037 29.7839L90.925 29.9224C90.8905 29.7718 90.8191 29.6522 90.7104 29.5647C90.6011 29.4772 90.4688 29.4338 90.3137 29.4338C90.0986 29.4338 89.9238 29.5111 89.7902 29.6667C89.656 29.8213 89.5892 30.0723 89.5892 30.4198C89.5892 30.7875 89.6552 31.0501 89.7868 31.2062C89.9191 31.363 90.0904 31.441 90.3016 31.441C90.4573 31.441 90.5917 31.3915 90.7035 31.2917C90.8156 31.192 90.8967 31.0359 90.9453 30.8221ZM92.0225 28.9818H92.6096V30.2237C92.7398 30.2101 92.8282 30.1769 92.874 30.1219C92.9199 30.0676 92.9914 29.9162 93.0871 29.6678C93.2079 29.3523 93.33 29.1557 93.4522 29.0788C93.5737 29.0022 93.7685 28.9636 94.0383 28.9636C94.0519 28.9636 94.0802 28.9629 94.1234 28.9617V29.3974L94.0404 29.3956C93.9203 29.3956 93.8326 29.4105 93.7772 29.4404C93.722 29.4703 93.6774 29.5158 93.643 29.5768C93.6086 29.638 93.5581 29.7635 93.4913 29.9535C93.4555 30.0545 93.4171 30.1387 93.3753 30.2066C93.334 30.2744 93.2605 30.3382 93.1553 30.3978C93.2855 30.4346 93.3928 30.5098 93.4777 30.6225C93.5628 30.7351 93.6558 30.8939 93.7571 31.0995L94.1517 31.8975H93.4636L93.1161 31.1469C93.1106 31.1362 93.0994 31.1159 93.0824 31.0852C93.0756 31.0751 93.0513 31.029 93.0095 30.9481C92.9353 30.8044 92.8746 30.7147 92.8275 30.6789C92.7796 30.6429 92.7074 30.6246 92.6096 30.6232V31.8975H92.0225V28.9818ZM94.3635 30.4571C94.3635 30.1599 94.4081 29.9101 94.4965 29.708C94.5618 29.5594 94.6522 29.4256 94.7663 29.3075C94.8802 29.1896 95.005 29.1021 95.1406 29.0442C95.3215 28.9676 95.5299 28.929 95.7661 28.929C96.1938 28.929 96.5351 29.0627 96.7922 29.3293C97.0485 29.5967 97.1766 29.9679 97.1766 30.4436C97.1766 30.9151 97.0492 31.2843 96.7948 31.5502C96.5405 31.8169 96.1998 31.95 95.7741 31.95C95.343 31.95 94.9996 31.8176 94.7453 31.5524C94.4911 31.2876 94.3635 30.9225 94.3635 30.4571ZM94.9666 30.4374C94.9666 30.7679 95.0429 31.0183 95.1946 31.1892C95.3465 31.3595 95.5394 31.4451 95.7729 31.4451C96.0068 31.4451 96.1986 31.3602 96.3489 31.1913C96.4986 31.0217 96.5736 30.7679 96.5736 30.4293C96.5736 30.0948 96.5007 29.8451 96.3542 29.6809C96.2085 29.516 96.015 29.4338 95.7729 29.4338C95.5313 29.4338 95.3364 29.5172 95.1885 29.6835C95.0408 29.8505 94.9666 30.1015 94.9666 30.4374ZM97.6334 31.897V28.9818H99.7786V29.4745H98.2204V30.1219H99.6694V30.6146H98.2204V31.4043H99.8354V31.897H97.6334ZM101.336 30.4571C101.336 30.1599 101.381 29.9101 101.469 29.708C101.535 29.5594 101.625 29.4256 101.739 29.3075C101.853 29.1896 101.978 29.1021 102.113 29.0442C102.294 28.9676 102.503 28.929 102.739 28.929C103.167 28.929 103.508 29.0627 103.765 29.3293C104.021 29.5967 104.149 29.9679 104.149 30.4436C104.149 30.9151 104.022 31.2843 103.768 31.5502C103.513 31.8169 103.173 31.95 102.747 31.95C102.316 31.95 101.972 31.8176 101.718 31.5524C101.464 31.2876 101.336 30.9225 101.336 30.4571ZM101.939 30.4374C101.939 30.7679 102.016 31.0183 102.167 31.1892C102.319 31.3595 102.512 31.4451 102.746 31.4451C102.98 31.4451 103.171 31.3602 103.322 31.1913C103.471 31.0217 103.546 30.7679 103.546 30.4293C103.546 30.0948 103.474 29.8451 103.327 29.6809C103.181 29.516 102.988 29.4338 102.746 29.4338C102.504 29.4338 102.309 29.5172 102.161 29.6835C102.014 29.8505 101.939 30.1015 101.939 30.4374ZM104.618 28.9818H106.784V29.4745H105.205V30.1503H105.987C106.202 30.1503 106.382 30.1769 106.523 30.2298C106.666 30.2827 106.787 30.3805 106.888 30.5235C106.988 30.6661 107.039 30.8338 107.039 31.0257C107.039 31.2226 106.988 31.3915 106.886 31.532C106.785 31.6717 106.67 31.7682 106.54 31.8197C106.41 31.8712 106.225 31.897 105.986 31.897H104.618V28.9818ZM105.205 31.4043H105.774C105.955 31.4043 106.084 31.3955 106.157 31.378C106.231 31.3602 106.296 31.3203 106.35 31.2572C106.405 31.1946 106.432 31.1173 106.432 31.0257C106.432 30.8921 106.384 30.7951 106.289 30.7339C106.193 30.6736 106.03 30.6431 105.8 30.6431H105.205V31.4043ZM107.118 28.9818H108.568V30.1463H109.351C109.558 30.1463 109.735 30.1741 109.881 30.2291C110.028 30.2842 110.151 30.3831 110.251 30.527C110.351 30.6715 110.401 30.8385 110.401 31.0297C110.401 31.2285 110.351 31.3983 110.249 31.5388C110.148 31.6792 110.032 31.7742 109.905 31.8237C109.776 31.8726 109.592 31.897 109.35 31.897H107.981V29.4745H107.118V28.9818ZM108.568 31.4043H109.138C109.316 31.4043 109.444 31.3948 109.52 31.3766C109.596 31.3583 109.661 31.3182 109.716 31.2558C109.77 31.1927 109.798 31.1161 109.798 31.0238C109.798 30.8934 109.752 30.797 109.658 30.7339C109.565 30.6708 109.401 30.639 109.164 30.639H108.568V31.4043ZM110.882 31.897V28.9818H113.027V29.4745H111.469V30.1219H112.918V30.6146H111.469V31.4043H113.084V31.897H110.882ZM113.816 28.9818H115.816V31.4043H116.071V32.5321H115.581V31.897H113.763V32.5321H113.274V31.4043H113.521C113.641 31.1552 113.72 30.8663 113.759 30.5378C113.797 30.2088 113.816 29.7929 113.816 29.29V28.9818ZM114.375 29.4745C114.375 30.3567 114.294 30.9999 114.132 31.4043H115.229V29.4745H114.375ZM116.473 28.9818H117.019V30.9225L118.193 28.9818H118.776V31.897H118.23V29.9876L117.056 31.897H116.473V28.9818ZM119.374 31.897V28.9818H119.961V30.13H121.103V28.9818H121.69V31.897H121.103V30.6227H119.961V31.897H119.374ZM122.298 31.897V28.9818H124.443V29.4745H122.884V30.1219H124.334V30.6146H122.884V31.4043H124.5V31.897H122.298ZM124.997 31.897V28.9818H125.584V30.13H126.726V28.9818H127.313V31.897H126.726V30.6227H125.584V31.897H124.997ZM127.929 28.9818H128.475V30.9225L129.649 28.9818H130.232V31.897H129.685V29.9876L128.512 31.897H127.929V28.9818ZM130.83 31.897V28.9818H132.975V29.4745H131.417V30.1219H132.866V30.6146H131.417V31.4043H133.032V31.897H130.83Z" fill="white"/>
</svg>
