<svg width="165" height="52" viewBox="0 0 165 52" fill="none" xmlns="http://www.w3.org/2000/svg">
<path fill-rule="evenodd" clip-rule="evenodd" d="M5.69314 0H69.315C72.4463 0 75.0081 2.59106 75.0081 5.75784V46.2076C75.0081 49.3742 72.446 51.9654 69.315 51.9654H50.2269C49.5071 51.9757 48.8001 51.6867 48.289 51.148L40.8375 43.6435C40.7755 43.5976 40.7393 43.5626 40.714 43.5293C40.1276 43.0425 39.7536 42.3039 39.7536 41.4769C39.7536 40.0112 40.9287 38.8228 42.3779 38.8228C42.5711 38.8228 42.7596 38.8441 42.9408 38.8841L42.966 38.8895L42.9742 38.891C43.3963 38.9875 43.7931 39.1896 44.1258 39.4851C44.9947 40.2581 46.0546 41.4801 46.9003 42.3208L51.2442 46.6388H67.8916C68.6744 46.6388 69.3148 45.9912 69.3148 45.1994V6.76494C69.3148 5.97319 68.6744 5.32561 67.8916 5.32561H7.11628C6.3335 5.32561 5.69314 5.97319 5.69314 6.76494V45.1994C5.69314 45.9909 6.3335 46.6388 7.11628 46.6388H24.6943V16.6972C24.6943 14.1136 26.7654 12.019 29.3199 12.019C30.0161 12.019 30.6758 12.1746 31.2679 12.4532C31.4104 12.5134 31.5468 12.5864 31.6752 12.6701L48.6718 22.8425C48.7472 22.8873 48.8197 22.9363 48.89 22.9882C50.194 23.8156 51.0609 25.2822 51.0609 26.9535C51.0609 27.7357 50.8709 28.4732 50.5354 29.1211C50.2495 29.6734 49.988 29.9721 49.7158 30.2396C49.3134 30.6346 48.8654 30.9042 48.1079 31.3482L38.6145 36.9147C38.1639 37.2797 37.592 37.498 36.9699 37.498C35.5157 37.498 34.3367 36.3056 34.3367 34.835C34.3367 33.6589 35.0908 32.6607 36.1365 32.3082L45.1754 26.9394L42.1702 25.1388L29.922 17.7997V47.3718V48.3162V48.9445C30.075 50.2607 28.7557 51.6685 27.9953 51.8746C27.2166 52.0857 27.5314 51.9667 27.3027 51.9657H27.2908L27.2088 51.965H5.69314C2.56233 51.965 0 49.374 0 46.2071V5.75784C0 2.59106 2.56188 0 5.69314 0Z" fill="#FFEC00"/>
<path fill-rule="evenodd" clip-rule="evenodd" d="M94.5532 13.1233C97.1381 13.1233 99.0217 13.556 100.204 14.4214C101.386 15.287 101.978 16.6599 101.978 18.5406C101.978 19.5891 101.693 20.5586 101.125 21.4491C100.557 22.3394 99.7408 23.0093 98.6779 23.4586L103.517 30.5986H98.4855C98.1186 29.7332 97.6788 28.9343 97.1654 28.2019L95.1858 25.2312C95.0025 24.9315 94.8376 24.732 94.6908 24.6321C94.5441 24.5322 94.3425 24.4824 94.0858 24.4824H93.2335V27.9273C93.2335 29.0424 93.2884 29.9329 93.3983 30.5986H89.0263V15.8195C89.0263 14.6045 88.9624 13.7059 88.834 13.1233H94.5532ZM93.2335 16.4687V21.3617H94.581C95.6256 21.3617 96.4186 21.137 96.9593 20.6877C97.5 20.2383 97.7705 19.5892 97.7705 18.7404C97.7705 17.2257 96.8172 16.4687 94.9108 16.4687H93.2335ZM108.742 16.2939C109.236 14.8458 109.521 13.7891 109.594 13.1233H115.121L121.17 30.5986H116.083C115.992 29.8664 115.818 29.0509 115.561 28.1521L114.983 26.3546H109.869L109.292 28.1271C109.035 29.0259 108.861 29.8498 108.769 30.5986H103.71L108.742 16.2939ZM114.131 23.0093L113.306 20.4131C113.031 19.4311 112.784 18.316 112.564 17.0677H112.481C112.206 18.3325 111.922 19.4476 111.629 20.4131L110.804 23.0093H114.131ZM122.765 15.7944C122.765 14.6295 122.701 13.739 122.572 13.1233H133.571V16.7182C132.966 16.6184 132.004 16.5685 130.684 16.5685H126.999V20.388H133.076V23.8082C132.471 23.7083 131.509 23.6585 130.189 23.6585H126.999V28.0772C126.999 28.4933 127.018 28.9469 127.054 29.4378C127.091 29.9288 127.137 30.3157 127.192 30.5986H122.765V15.7944ZM136.156 15.7944C136.156 14.5962 136.092 13.7059 135.963 13.1233H147.457V16.7182C146.687 16.6184 145.725 16.5685 144.57 16.5685H140.39V19.9887H146.962V23.4088C146.284 23.2922 145.321 23.2341 144.075 23.2341H140.39V25.1063C140.39 25.8719 140.418 26.5543 140.473 27.1535H144.762C145.936 27.1535 146.907 27.1036 147.677 27.0037V30.5986H136.156V15.7944ZM156.036 13.1233C158.621 13.1233 160.505 13.556 161.687 14.4214C162.869 15.287 163.46 16.6599 163.46 18.5406C163.46 19.5891 163.176 20.5586 162.608 21.4491C162.04 22.3394 161.224 23.0093 160.161 23.4586L165 30.5986H159.968C159.601 29.7332 159.162 28.9343 158.648 28.2019L156.669 25.2312C156.485 24.9315 156.32 24.732 156.174 24.6321C156.027 24.5322 155.825 24.4824 155.569 24.4824H154.716V27.9273C154.716 29.0424 154.771 29.9329 154.881 30.5986H150.509V15.8195C150.509 14.6045 150.445 13.7059 150.317 13.1233H156.036ZM154.716 16.4687V21.3617H156.064C157.108 21.3617 157.901 21.137 158.442 20.6877C158.983 20.2383 159.253 19.5892 159.253 18.7404C159.253 17.2257 158.3 16.4687 156.394 16.4687H154.716Z" fill="white"/>
<path fill-rule="evenodd" clip-rule="evenodd" d="M89.9559 39.4916V36.4923H88.8994V35.8824H91.7302V36.4923H90.6787V39.4916H89.9559ZM92.1981 35.8824H93.6251C93.9085 35.8824 94.1185 35.8941 94.2573 35.9176C94.3969 35.942 94.5207 35.9916 94.6302 36.0665C94.7399 36.142 94.8314 36.2421 94.9043 36.3672C94.9775 36.4923 95.0141 36.6336 95.0141 36.789C95.0141 36.957 94.9693 37.1124 94.8796 37.2527C94.7898 37.3937 94.6676 37.4988 94.514 37.5694C94.7309 37.634 94.897 37.7433 95.0141 37.898C95.1303 38.0525 95.1886 38.234 95.1886 38.4431C95.1886 38.6079 95.1511 38.7674 95.0756 38.9228C94.9999 39.0783 94.897 39.2026 94.7658 39.296C94.6354 39.3883 94.4742 39.4455 94.2822 39.4673C94.1626 39.4799 93.8728 39.4884 93.4134 39.4916H92.1981V35.8824ZM92.9208 36.4824V37.3141H93.3925C93.6725 37.3141 93.847 37.3095 93.9151 37.3015C94.038 37.2871 94.1353 37.2442 94.2059 37.1729C94.2765 37.1015 94.3113 37.0081 94.3113 36.8923C94.3113 36.7805 94.2805 36.6906 94.2198 36.621C94.1594 36.5511 94.0688 36.5092 93.9492 36.495C93.8777 36.4865 93.6724 36.4824 93.3344 36.4824H92.9208ZM92.9208 37.9139V38.8817H93.5885C93.8478 38.8817 94.0131 38.874 94.0827 38.8598C94.1899 38.8396 94.2773 38.7917 94.3444 38.7154C94.4118 38.6381 94.4458 38.5365 94.4458 38.4079C94.4458 38.2986 94.4202 38.207 94.3679 38.1315C94.3163 38.0557 94.2407 38.0004 94.1426 37.9659C94.0447 37.9315 93.8313 37.9139 93.5031 37.9139H92.9208ZM95.5243 37.7089C95.5243 37.3409 95.5791 37.0316 95.688 36.7814C95.7685 36.5975 95.8798 36.4318 96.0203 36.2856C96.1605 36.1396 96.3142 36.0313 96.4811 35.9596C96.7038 35.8647 96.9606 35.8169 97.2513 35.8169C97.778 35.8169 98.1982 35.9825 98.5148 36.3126C98.8304 36.6436 98.9882 37.1032 98.9882 37.6921C98.9882 38.276 98.8313 38.733 98.518 39.0623C98.2049 39.3924 97.7853 39.5572 97.2612 39.5572C96.7303 39.5572 96.3075 39.3933 95.9944 39.0649C95.6813 38.7372 95.5243 38.2851 95.5243 37.7089ZM96.2668 37.6845C96.2668 38.0937 96.3609 38.4037 96.5476 38.6152C96.7346 38.8261 96.9722 38.9321 97.2596 38.9321C97.5478 38.9321 97.7838 38.827 97.9688 38.6179C98.1532 38.4079 98.2456 38.0937 98.2456 37.6745C98.2456 37.2604 98.1558 36.9511 97.9755 36.7478C97.7961 36.5437 97.5579 36.4419 97.2596 36.4419C96.9623 36.4419 96.7221 36.5452 96.5401 36.7511C96.3583 36.9579 96.2668 37.2686 96.2668 37.6845ZM99.5506 39.4916V35.8824H100.706C101.144 35.8824 101.429 35.9 101.562 35.9361C101.766 35.9907 101.937 36.1085 102.075 36.29C102.213 36.4715 102.282 36.7058 102.282 36.9931C102.282 37.2148 102.242 37.4005 102.163 37.5517C102.083 37.703 101.983 37.8214 101.861 37.908C101.739 37.9937 101.614 38.0508 101.488 38.0786C101.316 38.113 101.067 38.1306 100.742 38.1306H100.273V39.4916H99.5506ZM100.273 36.4923V37.5206H100.666C100.95 37.5206 101.138 37.5013 101.233 37.4636C101.329 37.4257 101.404 37.367 101.458 37.2854C101.512 37.2049 101.539 37.1115 101.539 37.004C101.539 36.8721 101.501 36.7637 101.425 36.678C101.349 36.5922 101.254 36.5385 101.136 36.5167C101.051 36.5009 100.879 36.4923 100.62 36.4923H100.273ZM102.815 35.8824H103.538V36.7435C103.538 37.0225 103.548 37.2072 103.569 37.298C103.589 37.3896 103.649 37.4686 103.75 37.5358C103.849 37.6031 103.997 37.6366 104.192 37.6366C104.345 37.6366 104.482 37.6199 104.603 37.5861C104.723 37.5526 104.826 37.503 104.914 37.4375V35.8824H105.636V39.4916H104.914V38.0372C104.767 38.1029 104.624 38.1524 104.482 38.1861C104.341 38.2196 104.203 38.2364 104.066 38.2364C103.711 38.2364 103.413 38.1517 103.174 37.982C102.935 37.8122 102.815 37.5182 102.815 37.0998V35.8824ZM106.377 39.4916V35.8824H109.019V36.4923H107.1V37.2938H108.884V37.9039H107.1V38.8817H109.089V39.4916H106.377ZM111.985 38.1608L112.682 38.3776C112.575 38.775 112.396 39.0699 112.147 39.2631C111.898 39.4555 111.582 39.5521 111.199 39.5521C110.725 39.5521 110.336 39.3883 110.03 39.0608C109.725 38.733 109.572 38.2851 109.572 37.7165C109.572 37.1159 109.726 36.6486 110.032 36.3158C110.339 35.9833 110.743 35.8169 111.243 35.8169C111.68 35.8169 112.034 35.9479 112.307 36.2092C112.47 36.3638 112.591 36.5857 112.672 36.8753L111.96 37.0469C111.917 36.8604 111.829 36.7124 111.695 36.604C111.561 36.4956 111.398 36.4419 111.207 36.4419C110.942 36.4419 110.727 36.5376 110.562 36.7303C110.397 36.9217 110.315 37.2325 110.315 37.6627C110.315 38.118 110.396 38.4431 110.558 38.6364C110.721 38.8305 110.932 38.9271 111.192 38.9271C111.384 38.9271 111.549 38.8658 111.687 38.7422C111.825 38.6188 111.925 38.4255 111.985 38.1608ZM113.311 35.8824H114.034V37.4199C114.194 37.4031 114.303 37.3619 114.36 37.2938C114.416 37.2266 114.504 37.0393 114.622 36.7317C114.771 36.3411 114.921 36.0976 115.071 36.0025C115.221 35.9076 115.461 35.8597 115.793 35.8597C115.81 35.8597 115.845 35.859 115.898 35.8574V36.3969L115.796 36.3946C115.648 36.3946 115.54 36.4131 115.472 36.4501C115.404 36.4871 115.349 36.5435 115.306 36.619C115.264 36.6947 115.202 36.8501 115.12 37.0853C115.076 37.2105 115.028 37.3147 114.977 37.3987C114.926 37.4827 114.835 37.5617 114.706 37.6355C114.866 37.681 114.998 37.7741 115.103 37.9136C115.208 38.0531 115.322 38.2497 115.447 38.5042L115.933 39.4922H115.086L114.658 38.563C114.651 38.5497 114.637 38.5245 114.616 38.4866C114.608 38.474 114.578 38.417 114.526 38.3168C114.435 38.1389 114.36 38.0279 114.302 37.9835C114.243 37.9389 114.154 37.9162 114.034 37.9145V39.4922H113.311V35.8824ZM116.194 37.7089C116.194 37.3409 116.249 37.0316 116.357 36.7814C116.438 36.5975 116.549 36.4318 116.69 36.2856C116.83 36.1396 116.984 36.0313 117.151 35.9596C117.373 35.8647 117.63 35.8169 117.921 35.8169C118.447 35.8169 118.868 35.9825 119.184 36.3126C119.5 36.6436 119.658 37.1032 119.658 37.6921C119.658 38.276 119.501 38.733 119.187 39.0623C118.874 39.3924 118.455 39.5572 117.931 39.5572C117.4 39.5572 116.977 39.3933 116.664 39.0649C116.351 38.7372 116.194 38.2851 116.194 37.7089ZM116.936 37.6845C116.936 38.0937 117.03 38.4037 117.217 38.6152C117.404 38.8261 117.642 38.9321 117.929 38.9321C118.217 38.9321 118.453 38.827 118.638 38.6179C118.823 38.4079 118.915 38.0937 118.915 37.6745C118.915 37.2604 118.825 36.9511 118.645 36.7478C118.465 36.5437 118.227 36.4419 117.929 36.4419C117.632 36.4419 117.392 36.5452 117.21 36.7511C117.028 36.9579 116.936 37.2686 116.936 37.6845ZM120.22 39.4916V35.8824H122.862V36.4923H120.943V37.2938H122.727V37.9039H120.943V38.8817H122.931V39.4916H120.22ZM124.78 37.7089C124.78 37.3409 124.835 37.0316 124.943 36.7814C125.024 36.5975 125.135 36.4318 125.276 36.2856C125.416 36.1396 125.57 36.0313 125.737 35.9596C125.959 35.8647 126.216 35.8169 126.507 35.8169C127.033 35.8169 127.454 35.9825 127.77 36.3126C128.086 36.6436 128.244 37.1032 128.244 37.6921C128.244 38.276 128.087 38.733 127.773 39.0623C127.46 39.3924 127.041 39.5572 126.517 39.5572C125.986 39.5572 125.563 39.3933 125.25 39.0649C124.937 38.7372 124.78 38.2851 124.78 37.7089ZM125.522 37.6845C125.522 38.0937 125.616 38.4037 125.803 38.6152C125.99 38.8261 126.228 38.9321 126.515 38.9321C126.803 38.9321 127.039 38.827 127.224 38.6179C127.409 38.4079 127.501 38.0937 127.501 37.6745C127.501 37.2604 127.411 36.9511 127.231 36.7478C127.051 36.5437 126.813 36.4419 126.515 36.4419C126.218 36.4419 125.978 36.5452 125.796 36.7511C125.614 36.9579 125.522 37.2686 125.522 37.6845ZM128.821 35.8824H131.488V36.4923H129.544V37.3291H130.506C130.771 37.3291 130.992 37.3619 131.167 37.4275C131.342 37.493 131.492 37.614 131.615 37.7911C131.739 37.9676 131.801 38.1753 131.801 38.4129C131.801 38.6566 131.739 38.8658 131.614 39.0397C131.489 39.2126 131.347 39.3322 131.187 39.3959C131.027 39.4597 130.8 39.4916 130.505 39.4916H128.821V35.8824ZM129.544 38.8817H130.244C130.467 38.8817 130.625 38.8707 130.716 38.849C130.806 38.827 130.886 38.7776 130.953 38.6995C131.021 38.622 131.054 38.5263 131.054 38.4129C131.054 38.2475 130.995 38.1274 130.878 38.0516C130.76 37.977 130.56 37.9391 130.275 37.9391H129.544V38.8817ZM131.899 35.8824H133.684V37.3241H134.648C134.903 37.3241 135.121 37.3585 135.301 37.4266C135.481 37.4948 135.633 37.6173 135.756 37.7955C135.88 37.9744 135.942 38.1811 135.942 38.4179C135.942 38.664 135.879 38.8742 135.754 39.0481C135.629 39.222 135.487 39.3395 135.33 39.4009C135.172 39.4614 134.945 39.4916 134.647 39.4916H132.961V36.4923H131.899V35.8824ZM133.684 38.8817H134.386C134.606 38.8817 134.763 38.8699 134.856 38.8473C134.95 38.8246 135.03 38.775 135.098 38.6978C135.165 38.6196 135.199 38.5247 135.199 38.4105C135.199 38.249 135.142 38.1297 135.027 38.0516C134.912 37.9735 134.71 37.9341 134.418 37.9341H133.684V38.8817ZM136.533 39.4916V35.8824H139.174V36.4923H137.256V37.2938H139.04V37.9039H137.256V38.8817H139.244V39.4916H136.533ZM140.146 35.8824H142.609V38.8817H142.923V40.2779H142.319V39.4916H140.082V40.2779H139.479V38.8817H139.783C139.931 38.5733 140.029 38.2155 140.076 37.8088C140.123 37.4014 140.146 36.8865 140.146 36.2639V35.8824ZM140.834 36.4923C140.834 37.5846 140.735 38.3809 140.535 38.8817H141.886V36.4923H140.834ZM143.418 35.8824H144.091V38.2851L145.536 35.8824H146.254V39.4916H145.581V37.1276L144.136 39.4916H143.418V35.8824ZM146.991 39.4916V35.8824H147.713V37.3039H149.119V35.8824H149.841V39.4916H149.119V37.9139H147.713V39.4916H146.991ZM150.59 39.4916V35.8824H153.232V36.4923H151.313V37.2938H153.097V37.9039H151.313V38.8817H153.301V39.4916H150.59ZM153.915 39.4916V35.8824H154.637V37.3039H156.043V35.8824H156.765V39.4916H156.043V37.9139H154.637V39.4916H153.915ZM157.524 35.8824H158.197V38.2851L159.642 35.8824H160.36V39.4916H159.687V37.1276L158.242 39.4916H157.524V35.8824ZM161.097 39.4916V35.8824H163.738V36.4923H161.82V37.2938H163.604V37.9039H161.82V38.8817H163.808V39.4916H161.097Z" fill="white"/>
</svg>
