<svg width="52" height="52" viewBox="0 0 52 52" fill="none" xmlns="http://www.w3.org/2000/svg">
<path d="M37.8672 15.9878H14.1335C13.8914 15.9878 13.6593 16.0848 13.4881 16.2575C13.3169 16.4302 13.2207 16.6644 13.2207 16.9086V35.3244C13.2207 35.5686 13.3169 35.8028 13.4881 35.9755C13.6593 36.1482 13.8914 36.2452 14.1335 36.2452H37.8672C38.1093 36.2452 38.3415 36.1482 38.5127 35.9755C38.6839 35.8028 38.78 35.5686 38.78 35.3244V16.9086C38.78 16.6644 38.6839 16.4302 38.5127 16.2575C38.3415 16.0848 38.1093 15.9878 37.8672 15.9878ZM26.5606 27.7641C26.4004 27.8897 26.2033 27.9579 26.0004 27.9579C25.7974 27.9579 25.6003 27.8897 25.4401 27.7641L16.504 20.7535L17.6246 19.2998L26.0004 25.8707L34.3762 19.2998L35.4967 20.7535L26.5606 27.7641Z" fill="white"/>
<path d="M50 26C50 39.2548 39.2548 50 26 50C12.7452 50 2 39.2548 2 26C2 12.7452 12.7452 2 26 2C39.2548 2 50 12.7452 50 26Z" stroke="#FFEC00" stroke-width="4"/>
</svg>
