<svg width="52" height="52" viewBox="0 0 52 52" fill="none" xmlns="http://www.w3.org/2000/svg">
<path d="M37.639 30.916C36.9971 30.5959 33.8363 29.0505 33.2509 28.8374C32.6655 28.6244 32.2333 28.5173 31.8058 29.1576C31.3783 29.7978 30.1465 31.2304 29.7719 31.6622C29.3974 32.0941 29.0229 32.1413 28.3811 31.8211C27.7392 31.501 25.6684 30.8273 23.2151 28.6509C21.3057 26.9569 20.0174 24.8657 19.6428 24.2266C19.2683 23.5875 19.6025 23.2409 19.924 22.923C20.2133 22.6363 20.5659 22.1768 20.8874 21.8037C21.2089 21.4306 21.316 21.1635 21.5292 20.7374C21.7424 20.3113 21.6364 19.9382 21.4762 19.6192C21.316 19.3002 20.0312 16.1553 19.4965 14.8759C18.9745 13.63 18.4456 13.7992 18.0515 13.7797C17.6769 13.7612 17.2448 13.7566 16.8196 13.7566C16.4945 13.7651 16.1747 13.8404 15.8801 13.9779C15.5855 14.1154 15.3224 14.3122 15.1072 14.5558C14.5184 15.1961 12.859 16.7438 12.859 19.8852C12.859 22.9841 15.1017 25.9845 15.4677 26.4741L15.4817 26.4929C15.7998 26.9189 20.0104 33.3711 26.4532 36.1383C27.6495 36.6503 28.8719 37.0993 30.1153 37.4833C31.6537 37.9693 33.0538 37.9014 34.1601 37.7367C35.3942 37.5536 37.9628 36.1913 38.4963 34.6989C39.0299 33.2065 39.031 31.9282 38.8708 31.6622C38.7107 31.3962 38.282 31.235 37.639 30.916Z" fill="white"/>
<path fill-rule="evenodd" clip-rule="evenodd" d="M44.1036 7.49676C41.7172 5.11081 38.8821 3.22012 35.7615 1.93353C32.6409 0.646938 29.2965 -0.0101411 25.9208 0.000118311C11.7539 0.000118311 0.22125 11.4673 0.215488 25.5647C0.209221 30.0536 1.39329 34.4641 3.64717 38.347L0 51.5899L13.6265 48.0351C17.3983 50.0771 21.6206 51.1458 25.9104 51.1443H25.9208C40.0866 51.1443 51.6181 39.6759 51.625 25.5797C51.6336 22.2178 50.973 18.8877 49.6818 15.7833C48.3905 12.6789 46.4944 9.86207 44.1036 7.49676ZM25.9116 46.8294H25.9208C37.6966 46.8294 47.2807 37.2968 47.2853 25.5808C47.2743 19.9313 45.0182 14.5175 41.0132 10.5301C37.0082 6.54274 31.5823 4.30837 25.9289 4.31846C14.1439 4.31846 4.55521 13.8499 4.55521 25.5647C4.55089 29.5661 5.6838 33.4865 7.82211 36.8696L8.33029 37.6757L6.17195 45.5166L14.2579 43.407L15.0381 43.8676C18.3327 45.8078 22.0874 46.8305 25.9116 46.8294Z" fill="#FFEC00"/>
</svg>
